<?xml version="1.0" standalone="no"?>
<!DOCTYPE svg PUBLIC "-//W3C//DTD SVG 20010904//EN"
 "http://www.w3.org/TR/2001/REC-SVG-20010904/DTD/svg10.dtd">
<svg version="1.0" xmlns="http://www.w3.org/2000/svg"
 width="288.000000pt" height="288.000000pt" viewBox="0 0 288.000000 288.000000"
 preserveAspectRatio="xMidYMid meet">
<metadata>
Created by potrace 1.14, written by Peter Selinger 2001-2017
</metadata>
<g transform="translate(0.000000,288.000000) scale(0.100000,-0.100000)"
fill="#000000" stroke="none">
<path d="M920 2870 c0 -5 -6 -9 -12 -7 -7 1 -14 -9 -15 -23 -2 -24 -2 -24 5
-2 4 13 11 23 17 22 5 -1 11 3 13 9 2 6 1 11 -2 11 -3 0 -6 -4 -6 -10z"/>
<path d="M967 2862 c6 -15 5 -15 -10 -3 -10 8 -17 9 -17 3 0 -6 -8 -18 -17
-28 -16 -16 -16 -16 6 -9 22 7 22 6 6 -19 -10 -14 -21 -24 -25 -21 -5 3 -11 1
-15 -5 -3 -5 -13 -10 -21 -10 -8 0 -13 4 -10 8 6 10 -3 23 -29 42 -17 12 -16
10 2 -11 20 -22 21 -28 9 -44 -7 -10 -18 -15 -24 -11 -6 3 -14 -3 -17 -14 -4
-12 -12 -19 -18 -17 -7 2 -29 -9 -51 -25 -21 -15 -44 -28 -50 -28 -6 0 -19
-12 -29 -26 -10 -14 -13 -23 -6 -22 18 4 22 -19 4 -26 -9 -3 -14 -2 -11 3 3 5
-1 12 -10 15 -8 3 -12 2 -9 -3 3 -5 -5 -13 -17 -17 -13 -4 -38 -23 -55 -42
-18 -20 -33 -33 -33 -28 0 4 -13 -7 -28 -23 -20 -22 -31 -28 -39 -20 -8 8 -13
7 -18 -3 -5 -7 -5 -10 0 -6 9 9 35 -9 35 -24 0 -6 -7 -8 -15 -4 -19 7 -45 -3
-45 -16 0 -6 -10 -21 -22 -33 -25 -24 -51 -54 -84 -97 -11 -15 -25 -24 -29
-20 -5 4 -4 0 0 -8 5 -8 17 -21 27 -28 10 -7 16 -18 13 -23 -4 -5 1 -9 9 -9 9
0 16 -7 16 -16 0 -13 -5 -12 -30 6 -16 11 -32 25 -35 30 -11 17 -20 11 -39
-25 -10 -19 -23 -32 -29 -28 -6 3 -7 1 -4 -4 9 -15 -57 -145 -68 -136 -5 5 -4
1 3 -9 11 -14 10 -19 -9 -31 -11 -9 -18 -20 -14 -26 3 -6 2 -11 -2 -11 -5 0
-16 -30 -27 -67 -10 -38 -22 -77 -26 -88 -16 -37 -17 -50 -8 -68 6 -12 3 -23
-10 -37 -10 -11 -19 -38 -21 -62 -1 -24 -6 -44 -12 -46 -12 -5 -12 -62 0 -62
5 0 5 -16 0 -37 -11 -50 -11 -243 0 -243 5 0 12 -19 16 -42 38 -244 169 -531
315 -692 182 -201 374 -337 595 -421 108 -41 256 -78 307 -77 10 1 20 -3 23
-9 8 -12 322 -12 329 0 4 5 14 8 24 6 9 -1 27 1 38 6 13 4 26 3 34 -4 10 -9
11 -9 6 1 -9 15 -1 15 26 1 16 -9 19 -8 13 2 -6 9 -3 11 8 6 10 -4 16 -2 14 4
-1 6 9 13 22 15 19 3 22 1 17 -13 -5 -16 -5 -16 8 1 8 10 19 15 25 12 5 -4 13
-1 17 5 5 8 3 9 -7 4 -8 -5 -11 -4 -6 1 5 5 13 10 18 10 5 1 11 3 14 4 3 1 13
3 23 4 9 1 23 5 30 9 6 5 17 5 24 1 7 -4 8 -3 4 4 -6 10 7 17 17 10 2 -2 12 5
22 15 12 13 20 15 25 7 5 -7 15 -8 32 -1 14 5 29 7 34 3 4 -4 5 -2 1 3 -9 17
3 27 78 72 107 64 101 59 84 79 -13 16 -12 17 11 11 16 -4 30 -1 42 10 10 9
18 13 18 9 0 -4 7 0 16 8 8 9 26 16 40 16 13 0 25 6 25 13 1 6 2 17 3 22 0 6
13 24 28 40 l28 29 -30 31 c-33 34 -37 45 -16 45 7 0 21 -11 30 -25 9 -14 21
-25 27 -25 23 0 149 149 149 175 0 11 5 15 15 12 9 -4 21 5 32 24 10 16 23 27
29 25 8 -3 17 14 24 45 9 35 20 55 39 67 35 22 42 34 29 49 -7 9 -6 24 6 53 9
22 13 40 10 40 -4 0 -2 6 4 12 13 16 49 156 68 263 9 53 14 155 14 301 0 213
-1 222 -20 227 -12 3 -20 14 -20 26 0 11 -16 67 -36 123 -19 57 -36 109 -38
116 -1 7 -8 18 -14 24 -7 7 -12 18 -12 25 0 24 -135 233 -195 302 -36 42 -129
135 -176 176 -43 39 -205 147 -247 166 -18 8 -32 17 -32 21 0 5 -7 8 -15 8 -9
0 -32 8 -53 19 -38 19 -210 80 -247 87 -11 2 -40 6 -65 10 -25 3 -53 11 -63
16 -22 11 -477 8 -477 -4 0 -4 -5 -8 -11 -8 -5 0 -8 4 -5 9 3 5 -6 9 -19 9
-14 0 -25 -5 -25 -10 0 -5 5 -6 10 -3 6 3 10 1 10 -5 0 -7 -8 -9 -21 -5 -14 5
-19 4 -15 -4 5 -7 1 -9 -8 -5 -9 3 -16 1 -16 -4 0 -6 -9 -9 -20 -7 -11 2 -22
0 -25 -5 -3 -5 -17 -7 -31 -4 -19 3 -24 1 -18 -8 4 -7 -2 -4 -14 6 -12 11 -22
20 -22 22 0 2 16 1 35 0 22 -3 33 0 28 7 -4 6 -1 7 8 2 10 -6 11 -5 3 4 -6 6
-20 13 -32 16 -16 3 -19 0 -15 -13z m-15 -64 c-7 -7 -12 -8 -12 -2 0 14 12 26
19 19 2 -3 -1 -11 -7 -17z m-202 -263 c0 -2 -8 -9 -17 -16 -11 -10 -14 -10 -9
-1 4 7 2 12 -4 12 -18 0 -50 44 -38 51 8 5 68 -36 68 -46z m18 -36 c-2 -6 3
-14 11 -17 9 -3 11 0 6 8 -6 9 -4 11 4 5 9 -5 10 -10 2 -18 -12 -12 -44 10
-35 24 7 13 14 11 12 -2z m59 -56 c0 -8 -6 -9 -19 -2 -10 5 -18 11 -18 12 0 2
8 3 18 3 10 0 19 -6 19 -13z m-323 -28 c11 -8 16 -15 10 -15 -5 0 -2 -5 6 -10
8 -5 10 -10 5 -10 -15 0 -55 29 -55 41 0 13 12 11 34 -6z m1126 -80 c0 -2 -6
-7 -12 -11 -7 -4 -10 -4 -6 1 4 4 0 14 -10 22 -15 13 -15 13 6 3 12 -6 22 -13
22 -15z m62 15 c2 6 13 2 26 -10 19 -18 26 -18 24 1 0 3 10 5 24 5 13 0 24 -4
24 -8 0 -4 6 -7 13 -5 7 1 11 -7 11 -21 -1 -21 9 -22 12 -1 1 5 2 13 3 19 2
16 31 -1 31 -19 0 -12 -2 -13 -9 -3 -7 11 -9 11 -14 -1 -4 -11 2 -14 24 -12
16 1 29 -2 29 -8 0 -5 9 -2 20 8 13 12 20 14 20 5 0 -7 7 -10 15 -6 8 3 15 0
15 -6 0 -6 3 -8 7 -5 9 10 93 -40 122 -72 13 -14 20 -19 16 -11 -3 8 2 5 13
-7 11 -12 23 -19 27 -15 5 4 5 2 2 -4 -3 -6 2 -17 11 -26 26 -22 63 -68 56
-68 -4 0 -1 -7 6 -15 7 -8 8 -15 2 -15 -10 0 -33 24 -29 31 1 2 0 3 -2 1 -8
-4 -10 -31 -3 -31 20 3 25 -3 12 -12 -12 -8 -10 -9 8 -4 19 5 25 1 36 -27 15
-34 3 -55 -15 -27 -12 19 -11 32 1 24 6 -4 7 1 3 11 -4 11 -8 13 -11 6 -2 -7
-8 -9 -14 -6 -5 3 -3 -7 6 -24 8 -16 22 -32 31 -36 9 -3 14 -10 10 -15 -3 -5
-1 -13 5 -16 8 -5 7 -11 -1 -21 -9 -11 -9 -14 1 -14 9 0 10 -3 1 -13 -6 -8 -7
-18 -3 -23 4 -4 0 -3 -9 4 -9 6 -19 9 -23 5 -4 -4 4 -13 16 -21 13 -7 16 -11
7 -8 -9 2 -21 0 -27 -6 -6 -6 -12 -6 -17 3 -5 8 -4 10 4 5 8 -5 10 0 7 17 -4
21 -1 25 15 22 13 -3 19 0 16 8 -2 7 -11 11 -20 9 -13 -2 -16 4 -13 28 2 17
-1 33 -5 36 -5 3 -7 9 -4 14 6 10 -29 85 -52 112 -8 9 -12 21 -8 27 3 6 0 9
-7 6 -8 -3 -30 12 -51 34 -21 22 -47 43 -57 46 -12 4 -17 11 -13 18 11 17 13
38 3 32 -5 -3 -10 -1 -12 4 -1 5 -10 2 -18 -7 -13 -14 -12 -15 3 -9 9 3 19 2
22 -3 7 -11 -15 -13 -39 -4 -9 3 -13 11 -9 17 4 6 0 8 -9 4 -9 -3 -21 0 -27 6
-6 6 -11 8 -11 3 0 -4 -7 0 -16 8 -8 9 -20 14 -25 11 -5 -4 -9 -1 -9 6 0 8 -3
9 -13 0 -8 -6 -17 -7 -21 -3 -4 4 -13 7 -19 7 -7 1 -11 6 -9 13 3 15 -14 16
-23 2 -5 -8 -11 -7 -21 1 -11 9 -14 8 -14 -2 0 -8 -9 -3 -20 11 -16 20 -20 22
-20 8 0 -10 -5 -18 -10 -18 -7 0 -7 7 1 21 9 18 8 20 -9 15 -13 -5 -22 -1 -26
10 -5 14 -4 15 8 5 10 -8 15 -9 18 -1z m-226 -26 c1 -9 0 -13 -4 -10 -3 4 -7
14 -8 22 -1 9 0 13 4 10 3 -4 7 -14 8 -22z m97 1 c-3 -9 -8 -14 -10 -11 -3 3
-2 9 2 15 9 16 15 13 8 -4z m107 -6 c12 -8 10 -9 -9 -4 -17 5 -22 4 -16 -5 5
-9 4 -11 -4 -6 -6 4 -9 12 -6 17 8 12 16 11 35 -2z m240 -14 c0 -2 -9 -3 -20
-2 -11 1 -20 7 -20 14 0 11 5 11 20 3 11 -6 20 -13 20 -15z m-1284 -38 c-2 -7
-5 -4 -5 6 -1 10 -5 15 -11 12 -6 -4 -7 1 -3 11 6 15 7 15 15 0 5 -9 7 -22 4
-29z m-253 -105 c-2 -6 6 -13 16 -17 17 -5 38 -35 25 -35 -13 0 -72 55 -67 63
7 11 29 2 26 -11z m64 -58 c-4 -4 3 -15 15 -25 28 -25 13 -24 -18 0 -17 13
-20 21 -12 24 19 8 22 8 15 1z m64 -71 c13 -16 12 -17 -3 -4 -10 7 -18 15 -18
17 0 8 8 3 21 -13z m1744 -233 c-3 -5 -13 -6 -21 -3 -12 4 -13 8 -3 14 15 9
32 2 24 -11z m-22 -17 c3 -5 -5 -8 -18 -8 -13 0 -21 3 -18 8 2 4 10 7 18 7 8
0 16 -3 18 -7z m-19 -109 c3 -8 2 -12 -4 -9 -6 3 -10 10 -10 16 0 14 7 11 14
-7z m26 -54 c0 -5 -2 -10 -4 -10 -3 0 -8 5 -11 10 -3 6 -1 10 4 10 6 0 11 -4
11 -10z m-2050 -22 c0 -4 -4 -8 -9 -8 -6 0 -12 4 -15 8 -3 5 1 9 9 9 8 0 15
-4 15 -9z"/>
<path d="M710 2551 c0 -5 7 -12 16 -15 14 -5 15 -4 4 9 -14 17 -20 19 -20 6z"/>
<path d="M1748 2322 c-8 -10 -8 -13 -1 -9 6 4 14 3 18 -3 7 -11 25 -4 25 10 0
16 -29 18 -42 2z"/>
<path d="M1924 2268 c10 -6 22 -6 26 -2 5 5 -3 10 -18 11 -22 1 -24 0 -8 -9z"/>
<path d="M1970 2271 c0 -5 5 -13 10 -16 6 -3 10 -2 10 4 0 5 -4 13 -10 16 -5
3 -10 2 -10 -4z"/>
<path d="M2046 2229 c4 -6 0 -15 -7 -20 -8 -5 -9 -9 -3 -9 6 0 17 6 23 14 9
11 8 15 -4 20 -10 4 -14 2 -9 -5z"/>
<path d="M2065 2199 c-4 -6 -5 -12 -2 -15 2 -3 7 2 10 11 7 17 1 20 -8 4z"/>
<path d="M2096 2161 c-3 -4 3 -16 13 -26 19 -16 19 -16 16 2 -2 10 -4 21 -4
26 -1 10 -19 9 -25 -2z"/>
<path d="M2170 2110 c14 -9 7 -14 -13 -11 -5 1 -6 -3 -2 -9 5 -8 11 -8 21 1
15 12 10 29 -9 29 -7 0 -6 -4 3 -10z"/>
<path d="M2216 1959 c6 -8 10 -24 9 -35 -1 -13 4 -21 11 -20 23 3 28 15 10 22
-11 4 -13 9 -7 13 6 4 1 12 -12 20 -19 12 -20 12 -11 0z"/>
<path d="M1026 2868 c3 -5 0 -17 -8 -26 -12 -15 -11 -16 5 -3 9 7 17 11 17 7
0 -4 14 0 30 9 17 9 30 17 30 19 0 1 -18 3 -40 3 -21 0 -37 -4 -34 -9z m44 -2
c0 -2 -7 -7 -16 -10 -8 -3 -12 -2 -9 4 6 10 25 14 25 6z"/>
<path d="M870 2825 c0 -18 15 -32 33 -32 9 0 17 5 17 10 0 5 -7 7 -15 3 -8 -3
-19 2 -24 12 -6 9 -10 13 -11 7z"/>
<path d="M795 2810 c-3 -6 1 -13 9 -16 9 -3 13 -11 9 -17 -4 -6 -1 -7 7 -2 10
6 10 11 -3 20 -9 7 -14 15 -10 18 3 4 4 7 0 7 -3 0 -9 -5 -12 -10z"/>
<path d="M775 2750 c-3 -6 1 -7 9 -4 18 7 21 14 7 14 -6 0 -13 -4 -16 -10z"/>
<path d="M654 2702 c4 -3 14 -7 22 -8 9 -1 13 0 10 4 -4 3 -14 7 -22 8 -9 1
-13 0 -10 -4z"/>
<path d="M573 2625 c0 -8 4 -12 9 -9 5 3 6 10 3 15 -9 13 -12 11 -12 -6z"/>
<path d="M1886 42 c-3 -5 1 -9 9 -9 8 0 12 4 9 9 -7 10 -11 10 -18 0z"/>
</g>
</svg>
